<svg width="245" height="104" viewBox="0 0 245 104" fill="none" xmlns="http://www.w3.org/2000/svg">
<path d="M102.455 72.6648L90.7614 60.9716C92.2462 58.9299 93.2671 56.8437 93.8239 54.713C94.3807 52.5822 94.6591 50.3995 94.6591 48.1648C94.6591 45.9301 94.3807 43.7511 93.8239 41.6277C93.2671 39.5044 92.2462 37.5073 90.7614 35.6364L102.455 23.6648C105.424 27.1913 107.652 31.089 109.136 35.358C110.621 39.6269 111.364 43.8958 111.364 48.1648C111.364 52.4337 110.621 56.6581 109.136 60.8379C107.652 65.0178 105.424 68.9601 102.455 72.6648ZM126.119 96.608L114.148 84.6364C118.788 79.4394 122.27 73.6856 124.594 67.375C126.917 61.0644 128.076 54.661 128.068 48.1648C128.061 41.6686 126.903 35.3134 124.594 29.0993C122.285 22.8852 118.803 17.176 114.148 11.9716L126.119 0C132.43 6.86742 137.118 14.4327 140.185 22.6959C143.251 30.9591 144.78 39.4487 144.773 48.1648C144.765 56.8808 143.232 65.4187 140.173 73.7784C137.115 82.1381 132.43 89.748 126.119 96.608ZM44.5455 59.3011C38.4205 59.3011 33.1789 57.1221 28.8209 52.7641C24.4629 48.4061 22.2802 43.1608 22.2727 37.0284C22.2653 30.896 24.448 25.6545 28.8209 21.3039C33.1938 16.9533 38.4353 14.7705 44.5455 14.7557C50.6556 14.7408 55.9008 16.9236 60.2811 21.3039C64.6614 25.6842 66.8405 30.9257 66.8182 37.0284C66.7959 43.1311 64.6169 48.3764 60.2811 52.7641C55.9454 57.1518 50.7002 59.3308 44.5455 59.3011ZM0 103.847V97.4432C0 92.9886 1.20644 88.9053 3.61932 85.1932C6.0322 81.4811 9.37311 78.697 13.642 76.8409C18.4678 74.7992 23.4346 73.2216 28.5425 72.108C33.6504 70.9943 38.9847 70.4375 44.5455 70.4375C50.1062 70.4375 55.4442 70.9943 60.5595 72.108C65.6749 73.2216 70.638 74.7992 75.4489 76.8409C79.7178 78.697 83.0587 81.4811 85.4716 85.1932C87.8845 88.9053 89.0909 92.9886 89.0909 97.4432V103.847H0ZM200.455 59.3011C194.33 59.3011 189.088 57.1221 184.73 52.7641C180.372 48.4061 178.189 43.1608 178.182 37.0284C178.174 30.896 180.357 25.6545 184.73 21.3039C189.103 16.9533 194.344 14.7705 200.455 14.7557C206.565 14.7408 211.81 16.9236 216.19 21.3039C220.571 25.6842 222.75 30.9257 222.727 37.0284C222.705 43.1311 220.526 48.3764 216.19 52.7641C211.854 57.1518 206.609 59.3308 200.455 59.3011ZM155.909 103.847V97.4432C155.909 92.9886 157.116 88.9053 159.528 85.1932C161.941 81.4811 165.282 78.697 169.551 76.8409C174.377 74.7992 179.34 73.2216 184.44 72.108C189.541 70.9943 194.879 70.4375 200.455 70.4375C206.03 70.4375 211.364 70.9943 216.458 72.108C221.551 73.2216 226.517 74.7992 231.358 76.8409C235.627 78.697 238.968 81.4811 241.381 85.1932C243.794 88.9053 245 92.9886 245 97.4432V103.847H155.909Z" fill="white"/>
</svg>
